<svg width="1024" height="1024" viewBox="0 0 1024 1024" fill="none" xmlns="http://www.w3.org/2000/svg">
<path d="M798.742 306.825C805.781 306.66 814.463 308.923 820.104 313.171C835.694 324.908 834.459 340.126 834.383 357.17L834.225 383.278C834.122 404.124 835.422 408.108 857.747 407.488C864.852 407.292 873.142 407.329 880.333 407.36C888.705 407.397 899.427 406.638 907.418 408.245C912.167 409.195 916.677 411.101 920.67 413.849C942.108 428.729 937.974 463.773 913.669 472.735C904.6 476.079 897.545 475.549 888.058 475.516L861.196 475.371C852.895 475.333 839.769 473.476 835.798 482.358C833.219 487.531 834.503 493.48 834.144 498.883C833.165 513.673 836.325 535.483 833.263 549.367C832.218 554.108 830.195 558.578 827.317 562.49C821.029 571.07 812.869 574.451 802.718 575.985C783.88 576.29 768.997 565.164 766.587 545.805C765.929 540.496 766.217 534.858 766.239 529.486L766.375 502.67C766.424 494.575 768.181 481.645 759.597 477.206C754.173 474.4 748.456 475.78 742.847 475.358C728.084 474.249 706.004 477.59 692.05 474.479C687.155 473.372 682.553 471.217 678.571 468.162C671.553 462.692 667.038 454.623 666.048 445.782C664.362 431.938 670.444 418.854 682.705 412.033C693.209 406.191 704.557 407.244 716.133 407.304L742.01 407.436C749.974 407.464 760.826 408.937 764.677 400.191C767.114 394.64 765.793 389.465 766.152 383.867C767.109 368.779 764.014 347.727 767.153 333.355C768.213 328.493 770.329 323.924 773.354 319.973C779.985 311.395 788.335 308.127 798.742 306.825Z" fill="white"/>
<path d="M488.741 373.958C474.032 365.864 457.359 362.029 440.591 362.884C383.899 366.944 347.868 413.627 351.556 469.683C352.819 488.887 358.426 503.452 367.891 519.993C330.416 534.16 292.428 535.382 273.95 576.023C270.603 583.324 268.496 591.126 267.717 599.118C266.895 607.115 267.115 615.836 267.118 623.947L267.207 659.642C267.272 675.484 266.984 788.317 267.112 804.149C267.196 814.567 270.537 819.778 284.968 829.399C284.968 829.399 343.902 876.536 432.704 897.157C521.507 917.779 616.089 897.157 616.089 897.157C625.282 891.347 622.399 871.413 622.383 861.545L622.323 736.487L622.317 645.372C622.323 632.81 623.079 607.898 621.616 596.707C620.098 585.207 615.877 574.233 609.3 564.677C599.258 550.094 585.022 540.46 568.251 535.194C552.65 530.297 537.141 524.895 521.507 520.113C537.277 491.856 543.375 464.078 534.271 432.078C527.465 407.401 511.071 386.472 488.741 373.958Z" fill="white"/>
</svg>
