<svg width="1024" height="1024" viewBox="0 0 1024 1024" fill="none" xmlns="http://www.w3.org/2000/svg">
<path d="M725.853 93.4235C721.061 100.972 716.954 109.038 712.069 116.397C657.344 88.6311 575.056 71.9049 513.511 75.1001C488.348 76.214 467.483 78.1834 442.457 83.0552C350.856 101.128 267.445 148.05 204.434 216.953C126.069 302.195 84.8361 415.115 89.8304 530.802C94.482 647.004 145.459 756.513 231.383 834.876C317.895 914.207 432.789 955.216 549.979 948.596C665.504 942.404 769.374 886.353 851.187 804.54C858.575 797.152 878.857 773.768 858.905 751.51C838.953 729.251 819.207 727.119 763.595 778.688C756.496 785.27 748.924 791.277 741.232 797.152C731.571 804.497 721.518 811.324 711.122 817.597C611.296 878.007 488.229 885.749 381.613 838.336C295.102 799.655 227.377 728.359 193.185 639.969C159.37 551.708 161.917 453.639 200.266 367.25C238.945 280.607 310.36 212.809 398.89 178.688C469.48 151.655 546.829 147.726 619.793 167.466C638.191 172.47 653.134 178.181 670.628 185.413C667.082 191.265 653.21 213.259 651.627 218.461C650.8 221.134 650.713 223.98 651.366 226.699C654.14 238.32 671.51 234.844 680.632 234.358L712.64 232.731L765.374 230.068C775.307 229.571 786.11 229.541 795.831 227.674C802.136 226.462 806.145 218.706 804.127 212.831C801.271 203.883 797.866 195.092 794.591 186.274L777.2 139.4L763.219 101.657C760.771 95.0621 758.383 88.3199 755.658 81.9135C753.531 76.9325 746.361 73.7366 741.319 75.223C734.013 77.3781 729.612 87.5049 725.853 93.4235Z" fill="white"/>
</svg>
