<svg width="1024" height="1024" viewBox="0 0 1024 1024" fill="none" xmlns="http://www.w3.org/2000/svg">
<path d="M443.627 388.461C459.895 388.059 475.731 393.724 488.052 404.356C534.57 444.511 512.474 533.773 446.176 538.168C359.473 537.385 349.787 393.371 443.627 388.461Z" fill="white"/>
<path d="M489.024 373.935C474.346 365.858 457.707 362.031 440.975 362.884C384.402 366.935 348.447 413.52 352.127 469.458C353.388 488.621 358.983 503.156 368.428 519.662C368.428 519.662 378.002 534.038 386.472 540.846C388.945 542.834 391.444 544.872 394.02 546.725C428.031 571.201 472.258 568.45 503.692 540.811C503.692 540.811 516.448 529.227 521.72 519.782C537.457 491.584 543.542 463.865 534.457 431.932C527.666 407.307 511.306 386.422 489.024 373.935Z" fill="white"/>
</svg>
